<svg xmlns="http://www.w3.org/2000/svg" viewBox="0 0 345.06 122.05"><defs><style>.cls-1,.cls-7{fill:#333;}.cls-2{opacity:0.11;}.cls-3{fill:#fff;}.cls-4{fill:#e8bb00;}.cls-5{fill:#ffe000;}.cls-6{fill:#f9d500;}.cls-7{font-size:107.77px;font-family:DKGrumpyTiger-Regular, DK Grumpy Tiger;}.cls-8{letter-spacing:-0.01em;}</style></defs><title>Asset 1</title><g id="Layer_2" data-name="Layer 2"><g id="Layer_1-2" data-name="Layer 1"><path class="cls-1" d="M46.3,7c-6.89,0-12.93.18-18.16.5C33.37,7.15,39.43,7,46.3,7s13,.19,18.24.49C59.32,7.13,53.21,7,46.3,7Z"/><path class="cls-1" d="M75.92,41.52h0c0-11.66-18.58-7.1-34.05-1.21-.27.1-.55.2-.81.31l-.08,0-1.76.69h0l-1.74.7,0,0C26.51,39.41,17.08,35.55,14.64,34l3.71,16.65,1.85,8.3.18.73c2,10.34,50.12,10.18,52.1-.17l.15-.6,3.2-15.12A12.05,12.05,0,0,0,76,42.26C76,42,75.94,41.75,75.92,41.52Zm0,0h0c0-11.66-18.58-7.1-34.05-1.21-.27.1-.55.2-.81.31l-.08,0-1.76.69h0l-1.74.7,0,0C26.51,39.41,17.08,35.55,14.64,34l3.71,16.65,1.85,8.3.18.73c2,10.34,50.12,10.18,52.1-.17l.15-.6,3.2-15.12A12.05,12.05,0,0,0,76,42.26C76,42,75.94,41.75,75.92,41.52ZM91.68,8h0c-1.85-2.11-6.57-2.72-15-3.74A264.37,264.37,0,0,0,46.3,2.72,264.12,264.12,0,0,0,16,4.23C7.26,5.3,2.49,6,.78,8.18h0v0A2.25,2.25,0,0,0,0,10.06v.34a2.41,2.41,0,0,0,.1.67v0h0L12.94,97.83c.05,1.39.8,3.35,3.92,5,5.75,3,16.26,4.54,29.51,4.54s23.83-1.52,29.54-4.56c3.09-1.65,3.83-3.6,3.88-5l12.9-87.64A2.45,2.45,0,0,0,91.68,8ZM76.78,93.82a.15.15,0,0,1,0,.09l0,.51a1,1,0,0,0-.06.16s0,.1,0,.14l-.08.17-.09.15-.12.17-.12.15a1.14,1.14,0,0,1-.15.17l-.13.15c-.07,0-.13.12-.19.17l-.17.14a1.06,1.06,0,0,1-.23.17l-.17.15a2,2,0,0,0-.26.18,1.07,1.07,0,0,0-.21.13,1.83,1.83,0,0,0-.3.18l-.23.12-.34.18c-.08,0-.16.08-.26.13l-.35.16a1.83,1.83,0,0,1-.28.14,2.76,2.76,0,0,0-.4.18,1.78,1.78,0,0,0-.29.12l-.43.16-.32.12-.47.16-.34.12a3.28,3.28,0,0,0-.5.17,2.35,2.35,0,0,0-.35.11l-.54.15-.37.1q-.29.09-.57.15l-.39.11-.59.15c-.14,0-.27.06-.42.09s-.41.09-.61.14l-.43.09c-.22.06-.44.1-.66.14l-.45.09-.7.12-.46.09-.7.12-.48.08-.72.11-.54.07c-.25,0-.49.08-.75.1l-.52.07-.8.1-.53.06-.81.08c-.19,0-.38,0-.57.06l-.82.08-.58,0-.83.06-.64,0c-.28,0-.55,0-.84,0l-.65,0-.93,0-.59,0-1,0-.59,0-1.08,0H44.37l-1.08,0-.6,0c-.33,0-.65,0-1,0l-.6,0-.94,0-.64,0c-.29,0-.57,0-.84,0l-.64,0c-.27,0-.56,0-.82-.06l-.58,0-.83-.08c-.19,0-.38,0-.56-.06l-.82-.08c-.17,0-.35,0-.53-.06l-.8-.1-.53-.07c-.25,0-.51-.07-.75-.1l-.53-.07-.7-.11-.5-.08c-.23,0-.48-.08-.71-.12l-.47-.09-.67-.12-.47-.09c-.21,0-.43-.08-.64-.14l-.44-.09c-.2,0-.42-.08-.62-.14s-.27-.07-.41-.09l-.59-.15-.4-.11c-.19,0-.37-.09-.56-.15l-.37-.1-.54-.15a2.35,2.35,0,0,0-.35-.11,3.69,3.69,0,0,0-.5-.17L22,98.27l-.46-.16L21.25,98l-.44-.16a1.78,1.78,0,0,0-.29-.12,3.34,3.34,0,0,0-.4-.18,1.83,1.83,0,0,1-.28-.14l-.37-.16a1.41,1.41,0,0,0-.24-.13l-.33-.18-.24-.12a2.38,2.38,0,0,0-.3-.18,1.37,1.37,0,0,0-.2-.13,2,2,0,0,0-.26-.18,1.57,1.57,0,0,1-.19-.15,1.84,1.84,0,0,1-.22-.17c-.06,0-.11-.1-.16-.14a1.08,1.08,0,0,1-.19-.17L17,95.53a114.44,114.44,0,0,0,15.83.8c1.08,0,2.15-.06,3.19-.11,1.69-.09,3.32-.22,4.89-.4.52,0,1-.12,1.55-.18l1.09-.15c1.16-.16,2.28-.35,3.36-.56l1.36-.27,1.12-.25a6.41,6.41,0,0,0,.73-.17c.38-.08.74-.17,1.11-.27.77-.2,1.53-.4,2.26-.62l.7-.22.82-.26,1.41-.47.8-.29c.53-.19,1-.39,1.55-.6l.79-.32,1-.46.93-.43,1.21-.59.73-.37.18-.09.81-.44.82-.46c.31-.18.62-.36.91-.55s.56-.34.82-.51l.74-.47.11-.08.71-.48.65-.47c.27-.19.53-.38.78-.58.46-.34.9-.69,1.32-1l.62-.52.52-.45,1.17-1.08.51-.5c.17-.17.33-.33.48-.5l.46-.48c.15-.16.29-.33.44-.48s.27-.32.41-.47l.38-.45q.2-.22.36-.45c.25-.29.46-.57.67-.84a.61.61,0,0,1,.07-.1q.42-.55.75-1c.08-.12.16-.23.23-.35l.44-.68c.17-.28.31-.53.43-.74a1.64,1.64,0,0,0,.12-.22v0a2.92,2.92,0,0,0,.18-.33,3.17,3.17,0,0,0,.18-.37ZM81.7,32Q78.78,44.6,75.87,57.27c-.71,3.07-1.22,5.89-4,7.88-6.26,4.5-15.56,5.08-23,5.25-8.47.2-18-.39-25.8-4a9.79,9.79,0,0,1-5.87-6.91c-.28-1.43-.63-2.85-.95-4.26q-1.45-6.35-2.92-12.67Q10.5,30.1,7.63,17.65L7,15a220.16,220.16,0,0,0,78.56,0Q83.64,23.48,81.7,32ZM46.3,13.53c-21.07,0-34.47-1.74-39.27-3.28C9.45,9.46,14,8.64,20.68,8L23,7.8l.21,0,2.55-.18H26c.7,0,1.43-.1,2.17-.13C33.37,7.13,39.41,7,46.3,7s13,.18,18.24.5c.74,0,1.47.09,2.19.13l2.74.2c.9.09,1.75.15,2.57.24,6.59.63,11.15,1.44,13.55,2.23C80.78,11.79,67.37,13.53,46.3,13.53ZM41.07,40.62l-.08,0-1.76.69h0l-1.74.7,0,0C26.51,39.41,17.08,35.55,14.64,34l3.71,16.65,1.85,8.3.18.73c2,10.34,50.12,10.18,52.1-.17l.15-.6,3.2-15.12A12.05,12.05,0,0,0,76,42.26c0-.26,0-.51,0-.74h0c0-11.66-18.58-7.1-34.05-1.21C41.61,40.41,41.33,40.51,41.07,40.62Z"/><path class="cls-1" d="M64.54,7.45C59.32,7.15,53.21,7,46.3,7s-12.93.19-18.16.49C33.37,7.13,39.41,7,46.3,7S59.32,7.13,64.54,7.45Z"/><path class="cls-1" d="M79.77,74.07l-3,19.75a.11.11,0,0,1,0,.08l0,.52s0,.11,0,.16a.69.69,0,0,1,0,.13,1.5,1.5,0,0,1-.09.18,1.09,1.09,0,0,1-.08.15,1.4,1.4,0,0,0-.12.18l-.12.14a1.14,1.14,0,0,1-.15.17l-.13.15c-.07,0-.13.12-.19.17l-.17.14a1.06,1.06,0,0,1-.23.17c0,.06-.12.1-.17.15s-.18.11-.26.18l-.22.13c-.09.06-.2.11-.29.18l-.23.12a3.65,3.65,0,0,1-.34.18l-.26.13-.35.16a1.83,1.83,0,0,1-.28.14l-.4.17-.29.13-.44.16-.31.12-.47.16-.34.12a3.28,3.28,0,0,0-.5.17,2.3,2.3,0,0,0-.35.1c-.18.06-.35.1-.54.15l-.37.11q-.29.09-.57.15l-.39.11-.59.15c-.14,0-.27.07-.42.09a6,6,0,0,1-.61.14l-.43.09c-.22.06-.44.1-.65.14a4.14,4.14,0,0,1-.46.09l-.69.12-.46.09-.71.12-.48.08-.72.11-.54.08c-.25,0-.49.07-.75.09a4.63,4.63,0,0,1-.52.07l-.8.09-.53.07-.81.08c-.19,0-.38,0-.57.06l-.82.08-.59,0-.82.07-.64,0-.84,0-.65,0-.93,0-.59,0-1,0-.59,0-1.09,0H44.37l-1.09,0-.59,0-1,0-.59,0-.93,0-.65,0-.84,0-.64,0-.82-.07-.59,0-.82-.08c-.19,0-.38,0-.56-.06l-.82-.08-.53-.07c-.27,0-.54,0-.8-.09a4.63,4.63,0,0,1-.52-.07c-.26,0-.52-.07-.76-.09l-.53-.08-.7-.11-.5-.08-.71-.12-.47-.09-.68-.12-.46-.09c-.21,0-.43-.08-.65-.14l-.43-.09c-.2,0-.42-.08-.62-.14s-.27-.07-.41-.09l-.59-.15-.39-.11q-.28-.06-.57-.15l-.37-.11c-.19,0-.36-.09-.54-.15a2.3,2.3,0,0,0-.35-.1,4.23,4.23,0,0,0-.5-.17L22,98.27l-.46-.16L21.25,98l-.44-.16-.29-.13-.4-.17a1.83,1.83,0,0,1-.28-.14l-.37-.16-.24-.13a3.65,3.65,0,0,1-.34-.18l-.23-.12-.3-.18a1.37,1.37,0,0,0-.2-.13l-.25-.18a.6.6,0,0,1-.19-.15,1.06,1.06,0,0,1-.23-.17l-.17-.14-.19-.17L17,95.53C67.89,101.42,79.77,74.07,79.77,74.07Z"/><g class="cls-2"><path class="cls-3" d="M79.77,74.07l-3,19.75a.11.11,0,0,1,0,.08l0,.52s0,.11,0,.16a.69.69,0,0,1,0,.13,1.5,1.5,0,0,1-.09.18,1.09,1.09,0,0,1-.08.15,1.4,1.4,0,0,0-.12.18l-.12.14a1.14,1.14,0,0,1-.15.17l-.13.15c-.07,0-.13.12-.19.17l-.17.14a1.06,1.06,0,0,1-.23.17c0,.06-.12.1-.17.15s-.18.11-.26.18l-.22.13c-.09.06-.2.11-.29.18l-.23.12a3.65,3.65,0,0,1-.34.18l-.26.13-.35.16a1.83,1.83,0,0,1-.28.14l-.4.17-.29.13-.44.16-.31.12-.47.16-.34.12a3.28,3.28,0,0,0-.5.17,2.3,2.3,0,0,0-.35.1c-.18.06-.35.1-.54.15l-.37.11q-.29.09-.57.15l-.39.11-.59.15c-.14,0-.27.07-.42.09a6,6,0,0,1-.61.14l-.43.09c-.22.06-.44.1-.65.14a4.14,4.14,0,0,1-.46.09l-.69.12-.46.09-.71.12-.48.08-.72.11-.54.08c-.25,0-.49.07-.75.09a4.63,4.63,0,0,1-.52.07l-.8.09-.53.07-.81.08c-.19,0-.38,0-.57.06l-.82.08-.59,0-.82.07-.64,0-.84,0-.65,0-.93,0-.59,0-1,0-.59,0-1.09,0H44.37l-1.09,0-.59,0-1,0-.59,0-.93,0-.65,0-.84,0-.64,0-.82-.07-.59,0-.82-.08c-.19,0-.38,0-.56-.06l-.82-.08-.53-.07c-.27,0-.54,0-.8-.09a4.63,4.63,0,0,1-.52-.07c-.26,0-.52-.07-.76-.09l-.53-.08-.7-.11-.5-.08-.71-.12-.47-.09-.68-.12-.46-.09c-.21,0-.43-.08-.65-.14l-.43-.09c-.2,0-.42-.08-.62-.14s-.27-.07-.41-.09l-.59-.15-.39-.11q-.28-.06-.57-.15l-.37-.11c-.19,0-.36-.09-.54-.15a2.3,2.3,0,0,0-.35-.1,4.23,4.23,0,0,0-.5-.17L22,98.27l-.46-.16L21.25,98l-.44-.16-.29-.13-.4-.17a1.83,1.83,0,0,1-.28-.14l-.37-.16-.24-.13a3.65,3.65,0,0,1-.34-.18l-.23-.12-.3-.18a1.37,1.37,0,0,0-.2-.13l-.25-.18a.6.6,0,0,1-.19-.15,1.06,1.06,0,0,1-.23-.17l-.17-.14-.19-.17L17,95.53C67.89,101.42,79.77,74.07,79.77,74.07Z"/></g><path class="cls-3" d="M76,42.26a12.05,12.05,0,0,1-.12,1.52L72.63,58.9l-.15.6c-2,10.35-50.11,10.51-52.1.17l-.18-.73-1.85-8.3L14.64,34c2.44,1.56,11.87,5.42,22.78,8.07l0,0,1.74-.7h0L41,40.65l.08,0c15.62-6,34.89-11,34.86.9h0C75.94,41.75,76,42,76,42.26Z"/><path class="cls-4" d="M37.44,42.07c-2.22.91-4.37,1.83-6.4,2.71h0l-1.68.74-1.64.74L26.19,47c-2.52,1.15-4.59,2.13-6,2.78l-.27.13-.12.06a1.67,1.67,0,0,0-.23.12l-.42.19-.22.11-.22.11-.18.08-.2.1h0L14.64,34c2.44,1.56,11.87,5.42,22.78,8.07Z"/><path class="cls-5" d="M76,42.26a12.05,12.05,0,0,1-.12,1.52L72.63,58.9l-.15.6c-2,10.35-50.11,10.51-52.1.17l-.18-.73-1.85-8.3h0l.2-.1.18-.08.22-.11.22-.11.42-.19a1.67,1.67,0,0,1,.23-.12l.12-.06.27-.13c1.37-.65,3.44-1.63,6-2.78l1.51-.68,1.64-.74L31,44.79h0c2-.88,4.17-1.81,6.38-2.72l0,0,1.74-.7h0L41,40.65l.08,0c15.28-5.81,34.08-10,34.85.9C75.94,41.75,76,42,76,42.26Z"/><path class="cls-6" d="M75.93,41.52h0c-5.77-12.87-56.33,8.59-57.55,9.11l.2-.1.18-.08.22-.11.22-.11.42-.19.23-.12.12-.06.27-.13c1.37-.65,3.44-1.63,6-2.78l1.51-.68,1.64-.74L31,44.79h0c2-.88,4.18-1.8,6.4-2.71l1.77-.73h0L41,40.65l.08,0C56.69,34.58,76,29.66,75.93,41.52Z"/><text class="cls-7" transform="translate(114.75 96.29)">Liqui<tspan class="cls-8" x="166.4" y="0">l</tspan><tspan x="186.88" y="0">a</tspan></text></g></g></svg>